<?xml version="1.0" encoding="UTF-8"?>
<svg width="439px" height="439px" viewBox="0 0 439 439" version="1.1" xmlns="http://www.w3.org/2000/svg" xmlns:xlink="http://www.w3.org/1999/xlink">
    <!-- Generator: Sketch 43.2 (39069) - http://www.bohemiancoding.com/sketch -->
    <title>chevron-sign-to-right</title>
    <desc>Created with Sketch.</desc>
    <defs></defs>
    <g id="Page-1" stroke="none" stroke-width="1" fill="none" fill-rule="evenodd">
        <g id="chevron-sign-to-right" fill-rule="nonzero" fill="#D3D3D3">
            <path d="M409.133,109.203 C389.525,75.611 362.928,49.014 329.335,29.407 C295.736,9.801 259.058,0 219.273,0 C179.492,0 142.803,9.801 109.21,29.407 C75.615,49.011 49.018,75.608 29.41,109.203 C9.801,142.8 0,179.489 0,219.267 C0,259.047 9.804,295.73 29.407,329.329 C49.014,362.921 75.611,389.518 109.206,409.127 C142.803,428.732 179.489,438.534 219.269,438.534 C259.049,438.534 295.739,428.732 329.334,409.127 C362.927,389.525 389.523,362.921 409.129,329.329 C428.732,295.733 438.532,259.045 438.532,219.267 C438.533,179.485 428.732,142.795 409.133,109.203 Z M334.332,232.111 L204.71,361.736 C201.093,365.349 196.814,367.164 191.863,367.164 C186.911,367.164 182.628,365.35 179.013,361.736 L149.892,332.606 C146.275,328.993 144.466,324.708 144.466,319.759 C144.466,314.818 146.275,310.527 149.892,306.912 L237.545,219.266 L149.888,131.616 C146.271,128.004 144.462,123.718 144.462,118.771 C144.462,113.822 146.271,109.54 149.888,105.924 L179.009,76.794 C182.628,73.179 186.907,71.37 191.859,71.37 C196.809,71.37 201.092,73.179 204.709,76.794 L334.331,206.415 C337.944,210.029 339.751,214.313 339.751,219.262 C339.752,224.213 337.945,228.498 334.332,232.111 Z" id="Shape"></path>
        </g>
    </g>
</svg>